<svg xmlns="http://www.w3.org/2000/svg" viewBox="0 0 100 100">
  <defs>
    <linearGradient id="b" x1="0" y1="0" x2="1" y2="1">
      <stop offset="0" stop-color="#0a4fff"/>
      <stop offset="1" stop-color="#1e78ff"/>
    </linearGradient>
    <linearGradient id="s" x1="0" y1="0" x2="1" y2="1">
      <stop offset="0" stop-color="#e6e9ee"/>
      <stop offset="1" stop-color="#6b7280"/>
    </linearGradient>
  </defs>
  <path d="M 15 50 A 35 35 0 0 1 60 22 L 55 30 A 27 27 0 0 0 23 50 Z" fill="url(#b)"/>
  <path d="M 60 78 A 35 35 0 0 1 15 50 L 23 50 A 27 27 0 0 0 55 70 Z" fill="url(#b)"/>
  <path d="M 22 68 L 22 42 L 34 42 L 42 55 L 50 42 L 62 42 L 62 68 L 52 68 L 52 55 L 45 66 L 38 66 L 32 55 L 32 68 Z" fill="url(#b)"/>
  <path d="M 66 68 L 66 42 L 74 42 L 88 58 L 88 42 L 96 42 L 96 68 L 88 68 L 74 52 L 74 68 Z" fill="url(#s)"/>
</svg>
